HIERARCHY
ROOT pelvis
{
	OFFSET 0	0	0
	CHANNELS 6 Xposition Yposition Zposition Xrotation Yrotation Zrotation
	JOINT lThigh
	{
		OFFSET 0.0554835451766849	-0.0780156999826431	-0.014555293135345
		CHANNELS 3 Xrotation Yrotation Zrotation
		JOINT lCalf
		{
			OFFSET 0.0386000610888004	-0.354976981878281	0.00789703335613012
			CHANNELS 3 Xrotation Yrotation Zrotation
			JOINT lFoot
			{
				OFFSET -0.013784296810627	-0.387481331825256	-0.0352424904704094
				CHANNELS 3 Xrotation Yrotation Zrotation
				JOINT lSole
				{
					OFFSET 0.035913921892643	-0.0549436807632446	0.114341367036104
					CHANNELS 3 Xrotation Yrotation Zrotation
				}
			}
		}
	}
	JOINT rThigh
	{
		OFFSET -0.0577564621344209	-0.0869878977537155	-0.0105069316923618
		CHANNELS 3 Xrotation Yrotation Zrotation
		JOINT rCalf
		{
			OFFSET -0.0389910340309143	-0.350051045417786	-0.00204111263155937
			CHANNELS 3 Xrotation Yrotation Zrotation
			JOINT rFoot
			{
				OFFSET 0.0172116681933403	-0.37867683172226	-0.0321649238467216
				CHANNELS 3 Xrotation Yrotation Zrotation
				JOINT rSole
				{
					OFFSET -0.0279387757182121	-0.0565910339355469	0.121788941323757
					CHANNELS 3 Xrotation Yrotation Zrotation
				}
			}
		}
	}
	JOINT abomen
	{
		OFFSET 0.00430829357355833	0.119877316057682	-0.0367913357913494
		CHANNELS 3 Xrotation Yrotation Zrotation
		JOINT chest1
		{
			OFFSET 0.0060038398951292	0.133516728878021	0.026463158428669
			CHANNELS 3 Xrotation Yrotation Zrotation
			JOINT chest2
			{
				OFFSET -0.00177131965756416	0.0555925220251083	0.00152836926281452
				CHANNELS 3 Xrotation Yrotation Zrotation
				JOINT neck
				{
					OFFSET -0.011509332805872	0.205456577241421	-0.0378115326166153
					CHANNELS 3 Xrotation Yrotation Zrotation
					JOINT head
					{
						OFFSET 0.00881651788949966	0.0874870419502258	0.0427621193230152
						CHANNELS 3 Xrotation Yrotation Zrotation
					}
				}
				JOINT lShoulder
				{
					OFFSET 0.0672564376145601	0.110134862363338	-0.0185300260782242
					CHANNELS 3 Xrotation Yrotation Zrotation
					JOINT lUpperArm
					{
						OFFSET 0.117079876363277	0.0395155102014542	-0.0178751684725285
						CHANNELS 3 Xrotation Yrotation Zrotation
						JOINT lForearm
						{
							OFFSET 0.23239529132843	-0.0108031630516052	-0.0195480491966009
							CHANNELS 3 Xrotation Yrotation Zrotation
							JOINT lHand
							{
								OFFSET 0.245249301195145	0.00915718078613281	-0.00920860469341278
								CHANNELS 3 Xrotation Yrotation Zrotation
							}
						}
					}
				}
				JOINT rShoulder
				{
					OFFSET -0.0767905097454786	0.10787209123373	-0.0221287682652473
					CHANNELS 3 Xrotation Yrotation Zrotation
					JOINT rUpperArm
					{
						OFFSET -0.107205338776112	0.0394553542137146	-0.00892643816769123
						CHANNELS 3 Xrotation Yrotation Zrotation
						JOINT rForearm
						{
							OFFSET -0.237343594431877	-0.00905051827430725	-0.026978388428688
							CHANNELS 3 Xrotation Yrotation Zrotation
							JOINT rHand
							{
								OFFSET -0.247722119092941	0.00493180751800537	-0.0069025345146656
								CHANNELS 3 Xrotation Yrotation Zrotation
							}
						}
					}
				}
			}
		}
	}
}
MOTION
Frames: 9
Frame Time: 0.0833
  0.122947   0.857451   0.836176    150.473   -96.6936    59.3322    12.5182   0.204968   0.264921    177.524   -163.236    175.324    164.799    168.999   -169.422         -0          0         -0    156.411    176.822    179.692    43.2438 0.00506241    4.13285    175.245   -169.927   -179.373         -0          0         -0    12.4559   -3.67563  -0.757701    177.457    179.214   -177.961    3.04839    -1.8555    0.13235    6.03199    2.93889  -0.614734    7.46526   -1.38935    -1.1422    2.22996    3.31346   -19.7207    178.761   -163.847    122.784    25.7836   -24.0424    10.8059    179.079    179.255    174.204     2.8706   -2.47072    21.4112    10.7687    14.0844    61.3122     12.887    19.9885   -7.62301    173.623   -178.558    -171.27
   0.11631   0.858506   0.835265    150.236   -96.4587    59.0142    12.7471     0.2918   0.401895    177.626   -163.187    175.397    164.295    169.117   -169.563         -0          0         -0    156.194    176.674    179.727     40.324 -0.0640343    3.85653    175.648   -169.847    -179.12         -0          0         -0    12.2689   -3.77428   -0.62089    177.422    179.234   -178.028    3.19528   -1.90542   0.219909    5.60086    3.03932  -0.636331    7.31968   -1.34577   -1.03828    2.14009    3.27902   -19.6066     178.59   -163.672    123.037    25.8952   -24.3562    10.8252    179.251     179.49    174.449    2.96788   -2.57512    21.4702     10.879    14.0834     61.223    12.9763    19.9224   -7.42921    173.792   -178.618   -171.422
 0.109611  0.859553  0.834282   150.104    -96.26    58.795   12.9931    0.3527  0.550259   177.758  -163.124   175.457   163.857   169.182  -169.705        -0         0        -0   156.158    176.54   179.747   37.1068 -0.179658   3.55923   176.398  -169.828  -178.776        -0         0        -0   12.1675  -3.83682 -0.475778   177.385   179.282  -178.075   3.27376  -1.94471   0.31032   5.23419   3.05836 -0.738038   7.05079  -1.24369 -0.921706   2.05091   3.24826   -19.477   178.444  -163.474   123.248   26.0445  -24.6475   10.8759    179.35   179.708   174.617   3.01565   -2.6861   21.4182   11.0319     14.09   61.2219   13.1612   19.8532  -7.30547   173.911  -178.627  -171.527
 0.102716  0.860523  0.833252   149.904  -96.0982   58.5158   13.2675  0.413809  0.664464   177.916   -163.06   175.546   163.402   169.234  -169.814        -0         0        -0   156.279   176.431   179.741   33.5164 -0.410361   3.21034   177.324  -169.895  -178.343        -0         0        -0   12.0671  -3.88266 -0.312772   177.391   179.341  -178.137   3.31554  -1.96428  0.399049   4.90983   3.01629 -0.906729   6.71448  -1.09913 -0.763591   1.96018   3.21145   -19.344   178.321   -163.27   123.422   26.1807  -24.8872   10.9392   179.469   179.928   174.766   3.05983  -2.77284   21.3319   11.1804    14.079   61.2443     13.36   19.7821  -7.20654   174.022   -178.63  -171.643
0.0958421  0.861483  0.832142    149.28  -95.9234   57.8385    13.479  0.435975  0.737336   178.138      -163   175.633   162.948   169.265  -169.852        -0         0        -0   156.404   176.341   179.706    29.986 -0.388656   2.80295   178.538  -170.025  -177.761        -0         0        -0   11.9368  -3.89233  -0.17215   177.383   179.394    -178.2    3.3655  -1.98131  0.476891   4.56635   2.95787  -1.07486    6.3618 -0.962873 -0.601966   1.87922   3.17862  -19.1864   178.165  -163.072   123.557   26.2527  -25.1227   10.9657   179.404  -179.859   174.918   3.10631  -2.86237    21.237   11.3101   14.1011   61.2663   13.5401   19.7017  -7.10137   174.098  -178.621  -171.761
 0.0889734   0.862479   0.830952    148.346   -95.7523    56.8822    13.6631    0.44442   0.778716    178.386   -163.003    175.723    162.508    169.299   -169.863         -0          0         -0    156.597    176.298    179.656    26.2988  -0.250536    2.30976    179.989   -170.268   -177.066         -0          0         -0    11.7912   -3.84899 -0.0699095    177.378    179.465   -178.265    3.42018    -1.9948   0.563431    4.19043    2.88516    -1.2547    5.99001  -0.831829  -0.433457    1.76742    3.14832   -19.0217    178.014   -162.855    123.678    26.4337    -25.284    10.9959     179.57   -179.649    175.021    3.13315   -2.96006    21.1279    11.4381    14.1369    61.2851    13.7459    19.6071   -7.00137    174.253   -178.623   -171.881
 0.0820432    0.86351    0.82969    147.215   -95.5811     55.747    13.8233   0.465352   0.795469    178.673    -163.04    175.829    162.063    169.357   -169.866         -0          0         -0    156.867    176.288    179.591    22.4819 -0.0159308      1.767    1.68932   -9.36652    3.73029         -0          0         -0    11.6346   -3.77821  0.0158885    177.371    179.545   -178.337    3.47404   -2.00414   0.653062    3.79893    2.78036   -1.44766    5.60476  -0.700562  -0.263771    1.64988    3.12769   -18.8514    177.858   -162.642    123.779    26.6111   -25.4179    11.0085    179.755   -179.407    175.088    3.16216   -3.06275    21.0084    11.5381    14.1823    61.3058    13.9052    19.5083   -6.88296    174.377   -178.643   -171.988
 0.0750271   0.864562   0.828331    145.899   -95.4149     54.434    13.9838   0.488001   0.803957    178.969   -163.107     175.94     161.64    169.426   -169.878         -0          0         -0    157.194    176.291    179.515    18.6122   0.336148    1.20768    3.62365   -8.92787     4.5242         -0          0         -0    11.4473   -3.68867  0.0886322    177.393     179.63   -178.406    3.52096    -2.0227   0.749984    3.41122    2.63696   -1.66361    5.19002  -0.536604 -0.0837689     1.5339    3.10758   -18.6865    177.692   -162.435    123.852    26.7482   -25.5208    11.0265    179.894   -179.195    175.194    3.19383   -3.13818    20.8743    11.6343    14.2519    61.3092    14.0397    19.4366   -6.74663    174.477   -178.653   -172.108
0.0679699  0.865675  0.826913   144.474   -95.228   53.0271   14.1081  0.522949  0.812823   179.284  -163.189    176.05   161.218   169.532  -169.857        -0         0        -0   157.537    176.32   179.416   14.7759  0.758346  0.683269   5.46857  -8.43359   5.32863        -0         0        -0   11.2475  -3.58208  0.161367   177.402   179.713  -178.482   3.56426   -2.0263  0.840236   3.01155   2.47757  -1.89689   4.74912 -0.415736  0.106299   1.41838   3.05332  -18.5185   177.523   -162.23   123.923   26.8491  -25.5962   11.0087 0.0132114  -1.00823  -4.70567    3.2249  -3.22591   20.7386   11.7161   14.2912   61.3329   14.1622   19.3712  -6.61941   174.544  -178.671  -172.213
